<?xml version="1.0" encoding="UTF-8" standalone="no"?>
<!DOCTYPE svg PUBLIC "-//W3C//DTD SVG 1.1//EN"
 "http://www.w3.org/Graphics/SVG/1.1/DTD/svg11.dtd">
<!-- Generated by graphviz version 12.1.2 (20240928.0832)
 -->
<!-- Title: public.todo Pages: 1 -->
<svg width="746pt" height="694pt"
 viewBox="0.00 0.00 745.54 694.40" xmlns="http://www.w3.org/2000/svg" xmlns:xlink="http://www.w3.org/1999/xlink">
<g id="graph0" class="graph" transform="scale(1 1) rotate(0) translate(4 690.4)">
<title>public.todo</title>
<polygon fill="white" stroke="none" points="-4,4 -4,-690.4 741.54,-690.4 741.54,4 -4,4"/>
<!-- public.todo -->
<g id="node1" class="node">
<title>public.todo</title>
<polygon fill="#efefef" stroke="none" points="232.2,-261.8 232.2,-297.4 505.34,-297.4 505.34,-261.8 232.2,-261.8"/>
<polygon fill="none" stroke="black" points="232.2,-261.8 232.2,-297.4 505.34,-297.4 505.34,-261.8 232.2,-261.8"/>
<text text-anchor="start" x="265.78" y="-275.2" font-family="Arial Bold" font-size="18.00">public.todo</text>
<text text-anchor="start" x="347.27" y="-275.2" font-family="Arial" font-size="14.00">    </text>
<text text-anchor="start" x="378.39" y="-275.2" font-family="Arial" font-size="14.00" fill="#666666">[BASE TABLE]</text>
<polygon fill="none" stroke="black" points="232.2,-231 232.2,-261.8 505.34,-261.8 505.34,-231 232.2,-231"/>
<text text-anchor="start" x="239.2" y="-243.2" font-family="Arial" font-size="14.00">id </text>
<text text-anchor="start" x="253.99" y="-243.2" font-family="Arial" font-size="14.00" fill="#666666">[uuid]</text>
<polygon fill="none" stroke="black" points="232.2,-200.2 232.2,-231 505.34,-231 505.34,-200.2 232.2,-200.2"/>
<text text-anchor="start" x="239.2" y="-212.4" font-family="Arial" font-size="14.00">title </text>
<text text-anchor="start" x="264.88" y="-212.4" font-family="Arial" font-size="14.00" fill="#666666">[text]</text>
<polygon fill="none" stroke="black" points="232.2,-169.4 232.2,-200.2 505.34,-200.2 505.34,-169.4 232.2,-169.4"/>
<text text-anchor="start" x="239.2" y="-181.6" font-family="Arial" font-size="14.00">content </text>
<text text-anchor="start" x="289.01" y="-181.6" font-family="Arial" font-size="14.00" fill="#666666">[text]</text>
<polygon fill="none" stroke="black" points="232.2,-138.6 232.2,-169.4 505.34,-169.4 505.34,-138.6 232.2,-138.6"/>
<text text-anchor="start" x="239.2" y="-150.8" font-family="Arial" font-size="14.00">done </text>
<text text-anchor="start" x="274.23" y="-150.8" font-family="Arial" font-size="14.00" fill="#666666">[boolean]</text>
<polygon fill="none" stroke="black" points="232.2,-107.8 232.2,-138.6 505.34,-138.6 505.34,-107.8 232.2,-107.8"/>
<text text-anchor="start" x="239.2" y="-120" font-family="Arial" font-size="14.00">version </text>
<text text-anchor="start" x="288.22" y="-120" font-family="Arial" font-size="14.00" fill="#666666">[integer]</text>
<polygon fill="none" stroke="black" points="232.2,-77 232.2,-107.8 505.34,-107.8 505.34,-77 232.2,-77"/>
<text text-anchor="start" x="239.2" y="-89.2" font-family="Arial" font-size="14.00">created_at </text>
<text text-anchor="start" x="309.25" y="-89.2" font-family="Arial" font-size="14.00" fill="#666666">[timestamp without time zone]</text>
<polygon fill="none" stroke="black" points="232.2,-46.2 232.2,-77 505.34,-77 505.34,-46.2 232.2,-46.2"/>
<text text-anchor="start" x="239.2" y="-58.4" font-family="Arial" font-size="14.00">updated_at </text>
<text text-anchor="start" x="313.16" y="-58.4" font-family="Arial" font-size="14.00" fill="#666666">[timestamp without time zone]</text>
<polygon fill="none" stroke="black" stroke-width="3" points="230.7,-44.7 230.7,-298.9 506.84,-298.9 506.84,-44.7 230.7,-44.7"/>
</g>
<!-- public.sample1 -->
<g id="node2" class="node">
<title>public.sample1</title>
<polygon fill="#efefef" stroke="none" points="43.2,-592.2 43.2,-627.8 316.34,-627.8 316.34,-592.2 43.2,-592.2"/>
<polygon fill="none" stroke="black" points="43.2,-592.2 43.2,-627.8 316.34,-627.8 316.34,-592.2 43.2,-592.2"/>
<text text-anchor="start" x="62.79" y="-605.6" font-family="Arial Bold" font-size="18.00">public.sample1</text>
<text text-anchor="start" x="172.27" y="-605.6" font-family="Arial" font-size="14.00">    </text>
<text text-anchor="start" x="203.38" y="-605.6" font-family="Arial" font-size="14.00" fill="#666666">[BASE TABLE]</text>
<polygon fill="none" stroke="black" points="43.2,-561.4 43.2,-592.2 316.34,-592.2 316.34,-561.4 43.2,-561.4"/>
<text text-anchor="start" x="50.2" y="-573.6" font-family="Arial" font-size="14.00">id </text>
<text text-anchor="start" x="64.99" y="-573.6" font-family="Arial" font-size="14.00" fill="#666666">[uuid]</text>
<polygon fill="none" stroke="black" points="43.2,-530.6 43.2,-561.4 316.34,-561.4 316.34,-530.6 43.2,-530.6"/>
<text text-anchor="start" x="50.2" y="-542.8" font-family="Arial" font-size="14.00">todo_id </text>
<text text-anchor="start" x="100.02" y="-542.8" font-family="Arial" font-size="14.00" fill="#666666">[uuid]</text>
<polygon fill="none" stroke="black" points="43.2,-499.8 43.2,-530.6 316.34,-530.6 316.34,-499.8 43.2,-499.8"/>
<text text-anchor="start" x="50.2" y="-512" font-family="Arial" font-size="14.00">version </text>
<text text-anchor="start" x="99.22" y="-512" font-family="Arial" font-size="14.00" fill="#666666">[integer]</text>
<polygon fill="none" stroke="black" points="43.2,-469 43.2,-499.8 316.34,-499.8 316.34,-469 43.2,-469"/>
<text text-anchor="start" x="50.2" y="-481.2" font-family="Arial" font-size="14.00">created_at </text>
<text text-anchor="start" x="120.25" y="-481.2" font-family="Arial" font-size="14.00" fill="#666666">[timestamp without time zone]</text>
<polygon fill="none" stroke="black" points="43.2,-438.2 43.2,-469 316.34,-469 316.34,-438.2 43.2,-438.2"/>
<text text-anchor="start" x="50.2" y="-450.4" font-family="Arial" font-size="14.00">updated_at </text>
<text text-anchor="start" x="124.16" y="-450.4" font-family="Arial" font-size="14.00" fill="#666666">[timestamp without time zone]</text>
</g>
<!-- public.sample1&#45;&gt;public.todo -->
<g id="edge1" class="edge">
<title>public.sample1:todo_id&#45;&gt;public.todo:id</title>
<path fill="none" stroke="black" d="M327.45,-545.19C380.62,-535.98 347.56,-450.23 316.34,-395 294.78,-356.85 253.84,-381.71 232.2,-343.6 210.87,-306.03 188,-246.4 231.2,-246.4"/>
<polygon fill="black" stroke="black" points="327.65,-545.17 317.32,-541.49 322.33,-545.6 318.01,-545.95 318.01,-545.95 318.01,-545.95 322.33,-545.6 318.04,-550.46 327.65,-545.17"/>
<text text-anchor="start" x="324.34" y="-556" font-family="Arial" font-size="10.00">FOREIGN KEY (todo_id) REFERENCES todo(id)</text>
</g>
<!-- public.sample2 -->
<g id="node3" class="node">
<title>public.sample2</title>
<polygon fill="#efefef" stroke="none" points="421.2,-607.6 421.2,-643.2 694.34,-643.2 694.34,-607.6 421.2,-607.6"/>
<polygon fill="none" stroke="black" points="421.2,-607.6 421.2,-643.2 694.34,-643.2 694.34,-607.6 421.2,-607.6"/>
<text text-anchor="start" x="440.79" y="-621" font-family="Arial Bold" font-size="18.00">public.sample2</text>
<text text-anchor="start" x="550.27" y="-621" font-family="Arial" font-size="14.00">    </text>
<text text-anchor="start" x="581.38" y="-621" font-family="Arial" font-size="14.00" fill="#666666">[BASE TABLE]</text>
<polygon fill="none" stroke="black" points="421.2,-576.8 421.2,-607.6 694.34,-607.6 694.34,-576.8 421.2,-576.8"/>
<text text-anchor="start" x="428.2" y="-589" font-family="Arial" font-size="14.00">id </text>
<text text-anchor="start" x="442.99" y="-589" font-family="Arial" font-size="14.00" fill="#666666">[uuid]</text>
<polygon fill="none" stroke="black" points="421.2,-546 421.2,-576.8 694.34,-576.8 694.34,-546 421.2,-546"/>
<text text-anchor="start" x="428.2" y="-558.2" font-family="Arial" font-size="14.00">todo_id </text>
<text text-anchor="start" x="478.02" y="-558.2" font-family="Arial" font-size="14.00" fill="#666666">[uuid]</text>
<polygon fill="none" stroke="black" points="421.2,-515.2 421.2,-546 694.34,-546 694.34,-515.2 421.2,-515.2"/>
<text text-anchor="start" x="428.2" y="-527.4" font-family="Arial" font-size="14.00">sample1_id </text>
<text text-anchor="start" x="503.69" y="-527.4" font-family="Arial" font-size="14.00" fill="#666666">[uuid]</text>
<polygon fill="none" stroke="black" points="421.2,-484.4 421.2,-515.2 694.34,-515.2 694.34,-484.4 421.2,-484.4"/>
<text text-anchor="start" x="428.2" y="-496.6" font-family="Arial" font-size="14.00">version </text>
<text text-anchor="start" x="477.22" y="-496.6" font-family="Arial" font-size="14.00" fill="#666666">[integer]</text>
<polygon fill="none" stroke="black" points="421.2,-453.6 421.2,-484.4 694.34,-484.4 694.34,-453.6 421.2,-453.6"/>
<text text-anchor="start" x="428.2" y="-465.8" font-family="Arial" font-size="14.00">created_at </text>
<text text-anchor="start" x="498.25" y="-465.8" font-family="Arial" font-size="14.00" fill="#666666">[timestamp without time zone]</text>
<polygon fill="none" stroke="black" points="421.2,-422.8 421.2,-453.6 694.34,-453.6 694.34,-422.8 421.2,-422.8"/>
<text text-anchor="start" x="428.2" y="-435" font-family="Arial" font-size="14.00">updated_at </text>
<text text-anchor="start" x="502.16" y="-435" font-family="Arial" font-size="14.00" fill="#666666">[timestamp without time zone]</text>
</g>
<!-- public.sample2&#45;&gt;public.todo -->
<g id="edge2" class="edge">
<title>public.sample2:todo_id&#45;&gt;public.todo:id</title>
<path fill="none" stroke="black" d="M410.01,-560.72C342.75,-551.21 378.52,-443.9 421.2,-379.6 443.7,-345.71 482.77,-377.44 505.34,-343.6 529.32,-307.66 549.55,-246.4 506.34,-246.4"/>
<polygon fill="black" stroke="black" points="409.89,-560.71 419.57,-565.87 415.21,-561.07 419.53,-561.36 419.53,-561.36 419.53,-561.36 415.21,-561.07 420.17,-556.89 409.89,-560.71"/>
<text text-anchor="start" x="427.2" y="-571.4" font-family="Arial" font-size="10.00">FOREIGN KEY (todo_id) REFERENCES todo(id)</text>
</g>
</g>
</svg>
