<?xml version="1.0" encoding="UTF-8" standalone="no"?>
<!DOCTYPE svg PUBLIC "-//W3C//DTD SVG 1.1//EN"
 "http://www.w3.org/Graphics/SVG/1.1/DTD/svg11.dtd">
<!-- Generated by graphviz version 12.1.2 (20240928.0832)
 -->
<!-- Title: public.todo Pages: 1 -->
<svg width="561pt" height="664pt"
 viewBox="0.00 0.00 560.74 663.60" xmlns="http://www.w3.org/2000/svg" xmlns:xlink="http://www.w3.org/1999/xlink">
<g id="graph0" class="graph" transform="scale(1 1) rotate(0) translate(4 659.6)">
<title>public.todo</title>
<polygon fill="white" stroke="none" points="-4,4 -4,-659.6 556.74,-659.6 556.74,4 -4,4"/>
<!-- public.todo -->
<g id="node1" class="node">
<title>public.todo</title>
<polygon fill="#efefef" stroke="none" points="46.2,-261.8 46.2,-297.4 319.34,-297.4 319.34,-261.8 46.2,-261.8"/>
<polygon fill="none" stroke="black" points="46.2,-261.8 46.2,-297.4 319.34,-297.4 319.34,-261.8 46.2,-261.8"/>
<text text-anchor="start" x="79.78" y="-275.2" font-family="Arial Bold" font-size="18.00">public.todo</text>
<text text-anchor="start" x="161.27" y="-275.2" font-family="Arial" font-size="14.00">    </text>
<text text-anchor="start" x="192.39" y="-275.2" font-family="Arial" font-size="14.00" fill="#666666">[BASE TABLE]</text>
<polygon fill="none" stroke="black" points="46.2,-231 46.2,-261.8 319.34,-261.8 319.34,-231 46.2,-231"/>
<text text-anchor="start" x="53.2" y="-243.2" font-family="Arial" font-size="14.00">id </text>
<text text-anchor="start" x="67.99" y="-243.2" font-family="Arial" font-size="14.00" fill="#666666">[uuid]</text>
<polygon fill="none" stroke="black" points="46.2,-200.2 46.2,-231 319.34,-231 319.34,-200.2 46.2,-200.2"/>
<text text-anchor="start" x="53.2" y="-212.4" font-family="Arial" font-size="14.00">title </text>
<text text-anchor="start" x="78.88" y="-212.4" font-family="Arial" font-size="14.00" fill="#666666">[text]</text>
<polygon fill="none" stroke="black" points="46.2,-169.4 46.2,-200.2 319.34,-200.2 319.34,-169.4 46.2,-169.4"/>
<text text-anchor="start" x="53.2" y="-181.6" font-family="Arial" font-size="14.00">content </text>
<text text-anchor="start" x="103.01" y="-181.6" font-family="Arial" font-size="14.00" fill="#666666">[text]</text>
<polygon fill="none" stroke="black" points="46.2,-138.6 46.2,-169.4 319.34,-169.4 319.34,-138.6 46.2,-138.6"/>
<text text-anchor="start" x="53.2" y="-150.8" font-family="Arial" font-size="14.00">done </text>
<text text-anchor="start" x="88.23" y="-150.8" font-family="Arial" font-size="14.00" fill="#666666">[boolean]</text>
<polygon fill="none" stroke="black" points="46.2,-107.8 46.2,-138.6 319.34,-138.6 319.34,-107.8 46.2,-107.8"/>
<text text-anchor="start" x="53.2" y="-120" font-family="Arial" font-size="14.00">version </text>
<text text-anchor="start" x="102.22" y="-120" font-family="Arial" font-size="14.00" fill="#666666">[integer]</text>
<polygon fill="none" stroke="black" points="46.2,-77 46.2,-107.8 319.34,-107.8 319.34,-77 46.2,-77"/>
<text text-anchor="start" x="53.2" y="-89.2" font-family="Arial" font-size="14.00">created_at </text>
<text text-anchor="start" x="123.25" y="-89.2" font-family="Arial" font-size="14.00" fill="#666666">[timestamp without time zone]</text>
<polygon fill="none" stroke="black" points="46.2,-46.2 46.2,-77 319.34,-77 319.34,-46.2 46.2,-46.2"/>
<text text-anchor="start" x="53.2" y="-58.4" font-family="Arial" font-size="14.00">updated_at </text>
<text text-anchor="start" x="127.16" y="-58.4" font-family="Arial" font-size="14.00" fill="#666666">[timestamp without time zone]</text>
<polygon fill="none" stroke="black" stroke-width="3" points="44.7,-44.7 44.7,-298.9 320.84,-298.9 320.84,-44.7 44.7,-44.7"/>
</g>
<!-- public.sample -->
<g id="node2" class="node">
<title>public.sample</title>
<polygon fill="#efefef" stroke="none" points="46.2,-576.8 46.2,-612.4 319.34,-612.4 319.34,-576.8 46.2,-576.8"/>
<polygon fill="none" stroke="black" points="46.2,-576.8 46.2,-612.4 319.34,-612.4 319.34,-576.8 46.2,-576.8"/>
<text text-anchor="start" x="70.29" y="-590.2" font-family="Arial Bold" font-size="18.00">public.sample</text>
<text text-anchor="start" x="170.77" y="-590.2" font-family="Arial" font-size="14.00">    </text>
<text text-anchor="start" x="201.88" y="-590.2" font-family="Arial" font-size="14.00" fill="#666666">[BASE TABLE]</text>
<polygon fill="none" stroke="black" points="46.2,-546 46.2,-576.8 319.34,-576.8 319.34,-546 46.2,-546"/>
<text text-anchor="start" x="53.2" y="-558.2" font-family="Arial" font-size="14.00">id </text>
<text text-anchor="start" x="67.99" y="-558.2" font-family="Arial" font-size="14.00" fill="#666666">[uuid]</text>
<polygon fill="none" stroke="black" points="46.2,-515.2 46.2,-546 319.34,-546 319.34,-515.2 46.2,-515.2"/>
<text text-anchor="start" x="53.2" y="-527.4" font-family="Arial" font-size="14.00">todo_id </text>
<text text-anchor="start" x="103.02" y="-527.4" font-family="Arial" font-size="14.00" fill="#666666">[uuid]</text>
<polygon fill="none" stroke="black" points="46.2,-484.4 46.2,-515.2 319.34,-515.2 319.34,-484.4 46.2,-484.4"/>
<text text-anchor="start" x="53.2" y="-496.6" font-family="Arial" font-size="14.00">version </text>
<text text-anchor="start" x="102.22" y="-496.6" font-family="Arial" font-size="14.00" fill="#666666">[integer]</text>
<polygon fill="none" stroke="black" points="46.2,-453.6 46.2,-484.4 319.34,-484.4 319.34,-453.6 46.2,-453.6"/>
<text text-anchor="start" x="53.2" y="-465.8" font-family="Arial" font-size="14.00">created_at </text>
<text text-anchor="start" x="123.25" y="-465.8" font-family="Arial" font-size="14.00" fill="#666666">[timestamp without time zone]</text>
<polygon fill="none" stroke="black" points="46.2,-422.8 46.2,-453.6 319.34,-453.6 319.34,-422.8 46.2,-422.8"/>
<text text-anchor="start" x="53.2" y="-435" font-family="Arial" font-size="14.00">updated_at </text>
<text text-anchor="start" x="127.16" y="-435" font-family="Arial" font-size="14.00" fill="#666666">[timestamp without time zone]</text>
</g>
<!-- public.sample&#45;&gt;public.todo -->
<g id="edge1" class="edge">
<title>public.sample:todo_id&#45;&gt;public.todo:id</title>
<path fill="none" stroke="black" d="M330.14,-528.14C383.31,-500.37 380.05,-246.4 320.34,-246.4"/>
<polygon fill="black" stroke="black" points="330.37,-528.09 319.57,-526.15 325.19,-529.38 320.99,-530.44 320.99,-530.44 320.99,-530.44 325.19,-529.38 321.76,-534.88 330.37,-528.09"/>
<text text-anchor="start" x="327.34" y="-540.6" font-family="Arial" font-size="10.00">FOREIGN KEY (todo_id) REFERENCES todo(id)</text>
</g>
</g>
</svg>
