<?xml version="1.0" encoding="UTF-8" standalone="no"?>
<!DOCTYPE svg PUBLIC "-//W3C//DTD SVG 1.1//EN"
 "http://www.w3.org/Graphics/SVG/1.1/DTD/svg11.dtd">
<!-- Generated by graphviz version 12.1.2 (20240928.0832)
 -->
<!-- Title: public.sample2 Pages: 1 -->
<svg width="785pt" height="694pt"
 viewBox="0.00 0.00 784.61 694.40" xmlns="http://www.w3.org/2000/svg" xmlns:xlink="http://www.w3.org/1999/xlink">
<g id="graph0" class="graph" transform="scale(1 1) rotate(0) translate(4 690.4)">
<title>public.sample2</title>
<polygon fill="white" stroke="none" points="-4,4 -4,-690.4 780.61,-690.4 780.61,4 -4,4"/>
<!-- public.sample2 -->
<g id="node1" class="node">
<title>public.sample2</title>
<polygon fill="#efefef" stroke="none" points="233.4,-604.6 233.4,-640.2 506.54,-640.2 506.54,-604.6 233.4,-604.6"/>
<polygon fill="none" stroke="black" points="233.4,-604.6 233.4,-640.2 506.54,-640.2 506.54,-604.6 233.4,-604.6"/>
<text text-anchor="start" x="252.99" y="-618" font-family="Arial Bold" font-size="18.00">public.sample2</text>
<text text-anchor="start" x="362.46" y="-618" font-family="Arial" font-size="14.00">    </text>
<text text-anchor="start" x="393.58" y="-618" font-family="Arial" font-size="14.00" fill="#666666">[BASE TABLE]</text>
<polygon fill="none" stroke="black" points="233.4,-573.8 233.4,-604.6 506.54,-604.6 506.54,-573.8 233.4,-573.8"/>
<text text-anchor="start" x="240.4" y="-586" font-family="Arial" font-size="14.00">id </text>
<text text-anchor="start" x="255.18" y="-586" font-family="Arial" font-size="14.00" fill="#666666">[uuid]</text>
<polygon fill="none" stroke="black" points="233.4,-543 233.4,-573.8 506.54,-573.8 506.54,-543 233.4,-543"/>
<text text-anchor="start" x="240.4" y="-555.2" font-family="Arial" font-size="14.00">todo_id </text>
<text text-anchor="start" x="290.22" y="-555.2" font-family="Arial" font-size="14.00" fill="#666666">[uuid]</text>
<polygon fill="none" stroke="black" points="233.4,-512.2 233.4,-543 506.54,-543 506.54,-512.2 233.4,-512.2"/>
<text text-anchor="start" x="240.4" y="-524.4" font-family="Arial" font-size="14.00">sample1_id </text>
<text text-anchor="start" x="315.89" y="-524.4" font-family="Arial" font-size="14.00" fill="#666666">[uuid]</text>
<polygon fill="none" stroke="black" points="233.4,-481.4 233.4,-512.2 506.54,-512.2 506.54,-481.4 233.4,-481.4"/>
<text text-anchor="start" x="240.4" y="-493.6" font-family="Arial" font-size="14.00">version </text>
<text text-anchor="start" x="289.42" y="-493.6" font-family="Arial" font-size="14.00" fill="#666666">[integer]</text>
<polygon fill="none" stroke="black" points="233.4,-450.6 233.4,-481.4 506.54,-481.4 506.54,-450.6 233.4,-450.6"/>
<text text-anchor="start" x="240.4" y="-462.8" font-family="Arial" font-size="14.00">created_at </text>
<text text-anchor="start" x="310.45" y="-462.8" font-family="Arial" font-size="14.00" fill="#666666">[timestamp without time zone]</text>
<polygon fill="none" stroke="black" points="233.4,-419.8 233.4,-450.6 506.54,-450.6 506.54,-419.8 233.4,-419.8"/>
<text text-anchor="start" x="240.4" y="-432" font-family="Arial" font-size="14.00">updated_at </text>
<text text-anchor="start" x="314.36" y="-432" font-family="Arial" font-size="14.00" fill="#666666">[timestamp without time zone]</text>
<polygon fill="none" stroke="black" stroke-width="3" points="231.9,-418.3 231.9,-641.7 508.04,-641.7 508.04,-418.3 231.9,-418.3"/>
</g>
<!-- public.todo -->
<g id="node2" class="node">
<title>public.todo</title>
<polygon fill="#efefef" stroke="none" points="44.4,-258.8 44.4,-294.4 317.54,-294.4 317.54,-258.8 44.4,-258.8"/>
<polygon fill="none" stroke="black" points="44.4,-258.8 44.4,-294.4 317.54,-294.4 317.54,-258.8 44.4,-258.8"/>
<text text-anchor="start" x="77.98" y="-272.2" font-family="Arial Bold" font-size="18.00">public.todo</text>
<text text-anchor="start" x="159.47" y="-272.2" font-family="Arial" font-size="14.00">    </text>
<text text-anchor="start" x="190.59" y="-272.2" font-family="Arial" font-size="14.00" fill="#666666">[BASE TABLE]</text>
<polygon fill="none" stroke="black" points="44.4,-228 44.4,-258.8 317.54,-258.8 317.54,-228 44.4,-228"/>
<text text-anchor="start" x="51.4" y="-240.2" font-family="Arial" font-size="14.00">id </text>
<text text-anchor="start" x="66.18" y="-240.2" font-family="Arial" font-size="14.00" fill="#666666">[uuid]</text>
<polygon fill="none" stroke="black" points="44.4,-197.2 44.4,-228 317.54,-228 317.54,-197.2 44.4,-197.2"/>
<text text-anchor="start" x="51.4" y="-209.4" font-family="Arial" font-size="14.00">title </text>
<text text-anchor="start" x="77.07" y="-209.4" font-family="Arial" font-size="14.00" fill="#666666">[text]</text>
<polygon fill="none" stroke="black" points="44.4,-166.4 44.4,-197.2 317.54,-197.2 317.54,-166.4 44.4,-166.4"/>
<text text-anchor="start" x="51.4" y="-178.6" font-family="Arial" font-size="14.00">content </text>
<text text-anchor="start" x="101.21" y="-178.6" font-family="Arial" font-size="14.00" fill="#666666">[text]</text>
<polygon fill="none" stroke="black" points="44.4,-135.6 44.4,-166.4 317.54,-166.4 317.54,-135.6 44.4,-135.6"/>
<text text-anchor="start" x="51.4" y="-147.8" font-family="Arial" font-size="14.00">done </text>
<text text-anchor="start" x="86.43" y="-147.8" font-family="Arial" font-size="14.00" fill="#666666">[boolean]</text>
<polygon fill="none" stroke="black" points="44.4,-104.8 44.4,-135.6 317.54,-135.6 317.54,-104.8 44.4,-104.8"/>
<text text-anchor="start" x="51.4" y="-117" font-family="Arial" font-size="14.00">version </text>
<text text-anchor="start" x="100.42" y="-117" font-family="Arial" font-size="14.00" fill="#666666">[integer]</text>
<polygon fill="none" stroke="black" points="44.4,-74 44.4,-104.8 317.54,-104.8 317.54,-74 44.4,-74"/>
<text text-anchor="start" x="51.4" y="-86.2" font-family="Arial" font-size="14.00">created_at </text>
<text text-anchor="start" x="121.45" y="-86.2" font-family="Arial" font-size="14.00" fill="#666666">[timestamp without time zone]</text>
<polygon fill="none" stroke="black" points="44.4,-43.2 44.4,-74 317.54,-74 317.54,-43.2 44.4,-43.2"/>
<text text-anchor="start" x="51.4" y="-55.4" font-family="Arial" font-size="14.00">updated_at </text>
<text text-anchor="start" x="125.36" y="-55.4" font-family="Arial" font-size="14.00" fill="#666666">[timestamp without time zone]</text>
</g>
<!-- public.sample2&#45;&gt;public.todo -->
<g id="edge1" class="edge">
<title>public.sample2:todo_id&#45;&gt;public.todo:id</title>
<path fill="none" stroke="black" d="M222.04,-557.71C153.67,-548.04 190.02,-438.96 233.4,-373.6 255.89,-339.71 294.96,-371.43 317.54,-337.6 340.79,-302.78 360.41,-243.4 318.54,-243.4"/>
<polygon fill="black" stroke="black" points="222.09,-557.71 231.77,-562.87 227.41,-558.07 231.73,-558.36 231.73,-558.36 231.73,-558.36 227.41,-558.07 232.36,-553.89 222.09,-557.71"/>
<text text-anchor="start" x="7" y="-568.4" font-family="Arial" font-size="10.00">FOREIGN KEY (todo_id) REFERENCES todo(id)</text>
</g>
<!-- public.sample1 -->
<g id="node3" class="node">
<title>public.sample1</title>
<polygon fill="#efefef" stroke="none" points="422.4,-228 422.4,-263.6 695.54,-263.6 695.54,-228 422.4,-228"/>
<polygon fill="none" stroke="black" points="422.4,-228 422.4,-263.6 695.54,-263.6 695.54,-228 422.4,-228"/>
<text text-anchor="start" x="441.99" y="-241.4" font-family="Arial Bold" font-size="18.00">public.sample1</text>
<text text-anchor="start" x="551.46" y="-241.4" font-family="Arial" font-size="14.00">    </text>
<text text-anchor="start" x="582.58" y="-241.4" font-family="Arial" font-size="14.00" fill="#666666">[BASE TABLE]</text>
<polygon fill="none" stroke="black" points="422.4,-197.2 422.4,-228 695.54,-228 695.54,-197.2 422.4,-197.2"/>
<text text-anchor="start" x="429.4" y="-209.4" font-family="Arial" font-size="14.00">id </text>
<text text-anchor="start" x="444.18" y="-209.4" font-family="Arial" font-size="14.00" fill="#666666">[uuid]</text>
<polygon fill="none" stroke="black" points="422.4,-166.4 422.4,-197.2 695.54,-197.2 695.54,-166.4 422.4,-166.4"/>
<text text-anchor="start" x="429.4" y="-178.6" font-family="Arial" font-size="14.00">todo_id </text>
<text text-anchor="start" x="479.22" y="-178.6" font-family="Arial" font-size="14.00" fill="#666666">[uuid]</text>
<polygon fill="none" stroke="black" points="422.4,-135.6 422.4,-166.4 695.54,-166.4 695.54,-135.6 422.4,-135.6"/>
<text text-anchor="start" x="429.4" y="-147.8" font-family="Arial" font-size="14.00">version </text>
<text text-anchor="start" x="478.42" y="-147.8" font-family="Arial" font-size="14.00" fill="#666666">[integer]</text>
<polygon fill="none" stroke="black" points="422.4,-104.8 422.4,-135.6 695.54,-135.6 695.54,-104.8 422.4,-104.8"/>
<text text-anchor="start" x="429.4" y="-117" font-family="Arial" font-size="14.00">created_at </text>
<text text-anchor="start" x="499.45" y="-117" font-family="Arial" font-size="14.00" fill="#666666">[timestamp without time zone]</text>
<polygon fill="none" stroke="black" points="422.4,-74 422.4,-104.8 695.54,-104.8 695.54,-74 422.4,-74"/>
<text text-anchor="start" x="429.4" y="-86.2" font-family="Arial" font-size="14.00">updated_at </text>
<text text-anchor="start" x="503.36" y="-86.2" font-family="Arial" font-size="14.00" fill="#666666">[timestamp without time zone]</text>
</g>
<!-- public.sample2&#45;&gt;public.sample1 -->
<g id="edge2" class="edge">
<title>public.sample2:sample1_id&#45;&gt;public.sample1:id</title>
<path fill="none" stroke="black" d="M517.82,-526.79C571.7,-517.58 534.87,-431.77 506.54,-373.6 485.64,-330.67 443.39,-349.69 422.4,-306.8 403.99,-269.19 379.53,-212.6 421.4,-212.6"/>
<polygon fill="black" stroke="black" points="517.84,-526.79 507.52,-523.09 512.53,-527.21 508.21,-527.55 508.21,-527.55 508.21,-527.55 512.53,-527.21 508.23,-532.06 517.84,-526.79"/>
<text text-anchor="start" x="514.54" y="-537.6" font-family="Arial" font-size="10.00">FOREIGN KEY (sample1_id) REFERENCES sample1(id)</text>
</g>
</g>
</svg>
