<?xml version="1.0" encoding="UTF-8" standalone="no"?>
<!DOCTYPE svg PUBLIC "-//W3C//DTD SVG 1.1//EN"
 "http://www.w3.org/Graphics/SVG/1.1/DTD/svg11.dtd">
<!-- Generated by graphviz version 12.1.2 (20240928.0832)
 -->
<!-- Title: public.sample Pages: 1 -->
<svg width="561pt" height="664pt"
 viewBox="0.00 0.00 560.74 663.60" xmlns="http://www.w3.org/2000/svg" xmlns:xlink="http://www.w3.org/1999/xlink">
<g id="graph0" class="graph" transform="scale(1 1) rotate(0) translate(4 659.6)">
<title>public.sample</title>
<polygon fill="white" stroke="none" points="-4,4 -4,-659.6 556.74,-659.6 556.74,4 -4,4"/>
<!-- public.sample -->
<g id="node1" class="node">
<title>public.sample</title>
<polygon fill="#efefef" stroke="none" points="46.2,-573.8 46.2,-609.4 319.34,-609.4 319.34,-573.8 46.2,-573.8"/>
<polygon fill="none" stroke="black" points="46.2,-573.8 46.2,-609.4 319.34,-609.4 319.34,-573.8 46.2,-573.8"/>
<text text-anchor="start" x="70.29" y="-587.2" font-family="Arial Bold" font-size="18.00">public.sample</text>
<text text-anchor="start" x="170.77" y="-587.2" font-family="Arial" font-size="14.00">    </text>
<text text-anchor="start" x="201.88" y="-587.2" font-family="Arial" font-size="14.00" fill="#666666">[BASE TABLE]</text>
<polygon fill="none" stroke="black" points="46.2,-543 46.2,-573.8 319.34,-573.8 319.34,-543 46.2,-543"/>
<text text-anchor="start" x="53.2" y="-555.2" font-family="Arial" font-size="14.00">id </text>
<text text-anchor="start" x="67.99" y="-555.2" font-family="Arial" font-size="14.00" fill="#666666">[uuid]</text>
<polygon fill="none" stroke="black" points="46.2,-512.2 46.2,-543 319.34,-543 319.34,-512.2 46.2,-512.2"/>
<text text-anchor="start" x="53.2" y="-524.4" font-family="Arial" font-size="14.00">todo_id </text>
<text text-anchor="start" x="103.02" y="-524.4" font-family="Arial" font-size="14.00" fill="#666666">[uuid]</text>
<polygon fill="none" stroke="black" points="46.2,-481.4 46.2,-512.2 319.34,-512.2 319.34,-481.4 46.2,-481.4"/>
<text text-anchor="start" x="53.2" y="-493.6" font-family="Arial" font-size="14.00">version </text>
<text text-anchor="start" x="102.22" y="-493.6" font-family="Arial" font-size="14.00" fill="#666666">[integer]</text>
<polygon fill="none" stroke="black" points="46.2,-450.6 46.2,-481.4 319.34,-481.4 319.34,-450.6 46.2,-450.6"/>
<text text-anchor="start" x="53.2" y="-462.8" font-family="Arial" font-size="14.00">created_at </text>
<text text-anchor="start" x="123.25" y="-462.8" font-family="Arial" font-size="14.00" fill="#666666">[timestamp without time zone]</text>
<polygon fill="none" stroke="black" points="46.2,-419.8 46.2,-450.6 319.34,-450.6 319.34,-419.8 46.2,-419.8"/>
<text text-anchor="start" x="53.2" y="-432" font-family="Arial" font-size="14.00">updated_at </text>
<text text-anchor="start" x="127.16" y="-432" font-family="Arial" font-size="14.00" fill="#666666">[timestamp without time zone]</text>
<polygon fill="none" stroke="black" stroke-width="3" points="44.7,-418.3 44.7,-610.9 320.84,-610.9 320.84,-418.3 44.7,-418.3"/>
</g>
<!-- public.todo -->
<g id="node2" class="node">
<title>public.todo</title>
<polygon fill="#efefef" stroke="none" points="46.2,-258.8 46.2,-294.4 319.34,-294.4 319.34,-258.8 46.2,-258.8"/>
<polygon fill="none" stroke="black" points="46.2,-258.8 46.2,-294.4 319.34,-294.4 319.34,-258.8 46.2,-258.8"/>
<text text-anchor="start" x="79.78" y="-272.2" font-family="Arial Bold" font-size="18.00">public.todo</text>
<text text-anchor="start" x="161.27" y="-272.2" font-family="Arial" font-size="14.00">    </text>
<text text-anchor="start" x="192.39" y="-272.2" font-family="Arial" font-size="14.00" fill="#666666">[BASE TABLE]</text>
<polygon fill="none" stroke="black" points="46.2,-228 46.2,-258.8 319.34,-258.8 319.34,-228 46.2,-228"/>
<text text-anchor="start" x="53.2" y="-240.2" font-family="Arial" font-size="14.00">id </text>
<text text-anchor="start" x="67.99" y="-240.2" font-family="Arial" font-size="14.00" fill="#666666">[uuid]</text>
<polygon fill="none" stroke="black" points="46.2,-197.2 46.2,-228 319.34,-228 319.34,-197.2 46.2,-197.2"/>
<text text-anchor="start" x="53.2" y="-209.4" font-family="Arial" font-size="14.00">title </text>
<text text-anchor="start" x="78.88" y="-209.4" font-family="Arial" font-size="14.00" fill="#666666">[text]</text>
<polygon fill="none" stroke="black" points="46.2,-166.4 46.2,-197.2 319.34,-197.2 319.34,-166.4 46.2,-166.4"/>
<text text-anchor="start" x="53.2" y="-178.6" font-family="Arial" font-size="14.00">content </text>
<text text-anchor="start" x="103.01" y="-178.6" font-family="Arial" font-size="14.00" fill="#666666">[text]</text>
<polygon fill="none" stroke="black" points="46.2,-135.6 46.2,-166.4 319.34,-166.4 319.34,-135.6 46.2,-135.6"/>
<text text-anchor="start" x="53.2" y="-147.8" font-family="Arial" font-size="14.00">done </text>
<text text-anchor="start" x="88.23" y="-147.8" font-family="Arial" font-size="14.00" fill="#666666">[boolean]</text>
<polygon fill="none" stroke="black" points="46.2,-104.8 46.2,-135.6 319.34,-135.6 319.34,-104.8 46.2,-104.8"/>
<text text-anchor="start" x="53.2" y="-117" font-family="Arial" font-size="14.00">version </text>
<text text-anchor="start" x="102.22" y="-117" font-family="Arial" font-size="14.00" fill="#666666">[integer]</text>
<polygon fill="none" stroke="black" points="46.2,-74 46.2,-104.8 319.34,-104.8 319.34,-74 46.2,-74"/>
<text text-anchor="start" x="53.2" y="-86.2" font-family="Arial" font-size="14.00">created_at </text>
<text text-anchor="start" x="123.25" y="-86.2" font-family="Arial" font-size="14.00" fill="#666666">[timestamp without time zone]</text>
<polygon fill="none" stroke="black" points="46.2,-43.2 46.2,-74 319.34,-74 319.34,-43.2 46.2,-43.2"/>
<text text-anchor="start" x="53.2" y="-55.4" font-family="Arial" font-size="14.00">updated_at </text>
<text text-anchor="start" x="127.16" y="-55.4" font-family="Arial" font-size="14.00" fill="#666666">[timestamp without time zone]</text>
</g>
<!-- public.sample&#45;&gt;public.todo -->
<g id="edge1" class="edge">
<title>public.sample:todo_id&#45;&gt;public.todo:id</title>
<path fill="none" stroke="black" d="M330.14,-525.14C383.31,-497.37 380.05,-243.4 320.34,-243.4"/>
<polygon fill="black" stroke="black" points="330.37,-525.09 319.57,-523.15 325.19,-526.38 320.99,-527.44 320.99,-527.44 320.99,-527.44 325.19,-526.38 321.76,-531.88 330.37,-525.09"/>
<text text-anchor="start" x="327.34" y="-537.6" font-family="Arial" font-size="10.00">FOREIGN KEY (todo_id) REFERENCES todo(id)</text>
</g>
</g>
</svg>
