<?xml version="1.0" encoding="UTF-8" standalone="no"?>
<!DOCTYPE svg PUBLIC "-//W3C//DTD SVG 1.1//EN"
 "http://www.w3.org/Graphics/SVG/1.1/DTD/svg11.dtd">
<!-- Generated by graphviz version 12.1.2 (20240928.0832)
 -->
<!-- Title: postgres Pages: 1 -->
<svg width="785pt" height="1000pt"
 viewBox="0.00 0.00 784.61 1000.40" xmlns="http://www.w3.org/2000/svg" xmlns:xlink="http://www.w3.org/1999/xlink">
<g id="graph0" class="graph" transform="scale(1 1) rotate(0) translate(4 996.4)">
<title>postgres</title>
<polygon fill="white" stroke="none" points="-4,4 -4,-996.4 780.61,-996.4 780.61,4 -4,4"/>
<!-- public.todo -->
<g id="node1" class="node">
<title>public.todo</title>
<polygon fill="#efefef" stroke="none" points="233.4,-258.8 233.4,-294.4 506.54,-294.4 506.54,-258.8 233.4,-258.8"/>
<polygon fill="none" stroke="black" points="233.4,-258.8 233.4,-294.4 506.54,-294.4 506.54,-258.8 233.4,-258.8"/>
<text text-anchor="start" x="266.98" y="-272.2" font-family="Arial Bold" font-size="18.00">public.todo</text>
<text text-anchor="start" x="348.47" y="-272.2" font-family="Arial" font-size="14.00">    </text>
<text text-anchor="start" x="379.59" y="-272.2" font-family="Arial" font-size="14.00" fill="#666666">[BASE TABLE]</text>
<polygon fill="none" stroke="black" points="233.4,-228 233.4,-258.8 506.54,-258.8 506.54,-228 233.4,-228"/>
<text text-anchor="start" x="240.4" y="-240.2" font-family="Arial" font-size="14.00">id </text>
<text text-anchor="start" x="255.18" y="-240.2" font-family="Arial" font-size="14.00" fill="#666666">[uuid]</text>
<polygon fill="none" stroke="black" points="233.4,-197.2 233.4,-228 506.54,-228 506.54,-197.2 233.4,-197.2"/>
<text text-anchor="start" x="240.4" y="-209.4" font-family="Arial" font-size="14.00">title </text>
<text text-anchor="start" x="266.07" y="-209.4" font-family="Arial" font-size="14.00" fill="#666666">[text]</text>
<polygon fill="none" stroke="black" points="233.4,-166.4 233.4,-197.2 506.54,-197.2 506.54,-166.4 233.4,-166.4"/>
<text text-anchor="start" x="240.4" y="-178.6" font-family="Arial" font-size="14.00">content </text>
<text text-anchor="start" x="290.21" y="-178.6" font-family="Arial" font-size="14.00" fill="#666666">[text]</text>
<polygon fill="none" stroke="black" points="233.4,-135.6 233.4,-166.4 506.54,-166.4 506.54,-135.6 233.4,-135.6"/>
<text text-anchor="start" x="240.4" y="-147.8" font-family="Arial" font-size="14.00">done </text>
<text text-anchor="start" x="275.43" y="-147.8" font-family="Arial" font-size="14.00" fill="#666666">[boolean]</text>
<polygon fill="none" stroke="black" points="233.4,-104.8 233.4,-135.6 506.54,-135.6 506.54,-104.8 233.4,-104.8"/>
<text text-anchor="start" x="240.4" y="-117" font-family="Arial" font-size="14.00">version </text>
<text text-anchor="start" x="289.42" y="-117" font-family="Arial" font-size="14.00" fill="#666666">[integer]</text>
<polygon fill="none" stroke="black" points="233.4,-74 233.4,-104.8 506.54,-104.8 506.54,-74 233.4,-74"/>
<text text-anchor="start" x="240.4" y="-86.2" font-family="Arial" font-size="14.00">created_at </text>
<text text-anchor="start" x="310.45" y="-86.2" font-family="Arial" font-size="14.00" fill="#666666">[timestamp without time zone]</text>
<polygon fill="none" stroke="black" points="233.4,-43.2 233.4,-74 506.54,-74 506.54,-43.2 233.4,-43.2"/>
<text text-anchor="start" x="240.4" y="-55.4" font-family="Arial" font-size="14.00">updated_at </text>
<text text-anchor="start" x="314.36" y="-55.4" font-family="Arial" font-size="14.00" fill="#666666">[timestamp without time zone]</text>
</g>
<!-- public.sample1 -->
<g id="node2" class="node">
<title>public.sample1</title>
<polygon fill="#efefef" stroke="none" points="337.4,-570.8 337.4,-606.4 610.54,-606.4 610.54,-570.8 337.4,-570.8"/>
<polygon fill="none" stroke="black" points="337.4,-570.8 337.4,-606.4 610.54,-606.4 610.54,-570.8 337.4,-570.8"/>
<text text-anchor="start" x="356.99" y="-584.2" font-family="Arial Bold" font-size="18.00">public.sample1</text>
<text text-anchor="start" x="466.46" y="-584.2" font-family="Arial" font-size="14.00">    </text>
<text text-anchor="start" x="497.58" y="-584.2" font-family="Arial" font-size="14.00" fill="#666666">[BASE TABLE]</text>
<polygon fill="none" stroke="black" points="337.4,-540 337.4,-570.8 610.54,-570.8 610.54,-540 337.4,-540"/>
<text text-anchor="start" x="344.4" y="-552.2" font-family="Arial" font-size="14.00">id </text>
<text text-anchor="start" x="359.18" y="-552.2" font-family="Arial" font-size="14.00" fill="#666666">[uuid]</text>
<polygon fill="none" stroke="black" points="337.4,-509.2 337.4,-540 610.54,-540 610.54,-509.2 337.4,-509.2"/>
<text text-anchor="start" x="344.4" y="-521.4" font-family="Arial" font-size="14.00">todo_id </text>
<text text-anchor="start" x="394.22" y="-521.4" font-family="Arial" font-size="14.00" fill="#666666">[uuid]</text>
<polygon fill="none" stroke="black" points="337.4,-478.4 337.4,-509.2 610.54,-509.2 610.54,-478.4 337.4,-478.4"/>
<text text-anchor="start" x="344.4" y="-490.6" font-family="Arial" font-size="14.00">version </text>
<text text-anchor="start" x="393.42" y="-490.6" font-family="Arial" font-size="14.00" fill="#666666">[integer]</text>
<polygon fill="none" stroke="black" points="337.4,-447.6 337.4,-478.4 610.54,-478.4 610.54,-447.6 337.4,-447.6"/>
<text text-anchor="start" x="344.4" y="-459.8" font-family="Arial" font-size="14.00">created_at </text>
<text text-anchor="start" x="414.45" y="-459.8" font-family="Arial" font-size="14.00" fill="#666666">[timestamp without time zone]</text>
<polygon fill="none" stroke="black" points="337.4,-416.8 337.4,-447.6 610.54,-447.6 610.54,-416.8 337.4,-416.8"/>
<text text-anchor="start" x="344.4" y="-429" font-family="Arial" font-size="14.00">updated_at </text>
<text text-anchor="start" x="418.36" y="-429" font-family="Arial" font-size="14.00" fill="#666666">[timestamp without time zone]</text>
</g>
<!-- public.sample1&#45;&gt;public.todo -->
<g id="edge1" class="edge">
<title>public.sample1:todo_id&#45;&gt;public.todo:id</title>
<path fill="none" stroke="black" d="M326.21,-523.74C272.15,-513.91 297.32,-422.78 337.4,-373.6 385.96,-314.02 457.86,-397.08 506.54,-337.6 533.06,-305.2 549.41,-243.4 507.54,-243.4"/>
<polygon fill="black" stroke="black" points="326.1,-523.73 335.68,-529.06 331.42,-524.18 335.73,-524.54 335.73,-524.54 335.73,-524.54 331.42,-524.18 336.45,-520.09 326.1,-523.73"/>
<text text-anchor="start" x="111" y="-534.6" font-family="Arial" font-size="10.00">FOREIGN KEY (todo_id) REFERENCES todo(id)</text>
</g>
<!-- public.sample2 -->
<g id="node3" class="node">
<title>public.sample2</title>
<polygon fill="#efefef" stroke="none" points="233.4,-913.6 233.4,-949.2 506.54,-949.2 506.54,-913.6 233.4,-913.6"/>
<polygon fill="none" stroke="black" points="233.4,-913.6 233.4,-949.2 506.54,-949.2 506.54,-913.6 233.4,-913.6"/>
<text text-anchor="start" x="252.99" y="-927" font-family="Arial Bold" font-size="18.00">public.sample2</text>
<text text-anchor="start" x="362.46" y="-927" font-family="Arial" font-size="14.00">    </text>
<text text-anchor="start" x="393.58" y="-927" font-family="Arial" font-size="14.00" fill="#666666">[BASE TABLE]</text>
<polygon fill="none" stroke="black" points="233.4,-882.8 233.4,-913.6 506.54,-913.6 506.54,-882.8 233.4,-882.8"/>
<text text-anchor="start" x="240.4" y="-895" font-family="Arial" font-size="14.00">id </text>
<text text-anchor="start" x="255.18" y="-895" font-family="Arial" font-size="14.00" fill="#666666">[uuid]</text>
<polygon fill="none" stroke="black" points="233.4,-852 233.4,-882.8 506.54,-882.8 506.54,-852 233.4,-852"/>
<text text-anchor="start" x="240.4" y="-864.2" font-family="Arial" font-size="14.00">todo_id </text>
<text text-anchor="start" x="290.22" y="-864.2" font-family="Arial" font-size="14.00" fill="#666666">[uuid]</text>
<polygon fill="none" stroke="black" points="233.4,-821.2 233.4,-852 506.54,-852 506.54,-821.2 233.4,-821.2"/>
<text text-anchor="start" x="240.4" y="-833.4" font-family="Arial" font-size="14.00">sample1_id </text>
<text text-anchor="start" x="315.89" y="-833.4" font-family="Arial" font-size="14.00" fill="#666666">[uuid]</text>
<polygon fill="none" stroke="black" points="233.4,-790.4 233.4,-821.2 506.54,-821.2 506.54,-790.4 233.4,-790.4"/>
<text text-anchor="start" x="240.4" y="-802.6" font-family="Arial" font-size="14.00">version </text>
<text text-anchor="start" x="289.42" y="-802.6" font-family="Arial" font-size="14.00" fill="#666666">[integer]</text>
<polygon fill="none" stroke="black" points="233.4,-759.6 233.4,-790.4 506.54,-790.4 506.54,-759.6 233.4,-759.6"/>
<text text-anchor="start" x="240.4" y="-771.8" font-family="Arial" font-size="14.00">created_at </text>
<text text-anchor="start" x="310.45" y="-771.8" font-family="Arial" font-size="14.00" fill="#666666">[timestamp without time zone]</text>
<polygon fill="none" stroke="black" points="233.4,-728.8 233.4,-759.6 506.54,-759.6 506.54,-728.8 233.4,-728.8"/>
<text text-anchor="start" x="240.4" y="-741" font-family="Arial" font-size="14.00">updated_at </text>
<text text-anchor="start" x="314.36" y="-741" font-family="Arial" font-size="14.00" fill="#666666">[timestamp without time zone]</text>
</g>
<!-- public.sample2&#45;&gt;public.todo -->
<g id="edge2" class="edge">
<title>public.sample2:todo_id&#45;&gt;public.todo:id</title>
<path fill="none" stroke="black" d="M223.11,-863.42C163.22,-810.27 166.32,-243.4 232.4,-243.4"/>
<polygon fill="black" stroke="black" points="222.9,-863.33 230.32,-871.4 227.8,-865.43 231.78,-867.14 231.78,-867.14 231.78,-867.14 227.8,-865.43 233.86,-863.13 222.9,-863.33"/>
<text text-anchor="start" x="7" y="-877.4" font-family="Arial" font-size="10.00">FOREIGN KEY (todo_id) REFERENCES todo(id)</text>
</g>
<!-- public.sample2&#45;&gt;public.sample1 -->
<g id="edge3" class="edge">
<title>public.sample2:sample1_id&#45;&gt;public.sample1:id</title>
<path fill="none" stroke="black" d="M517.73,-835.74C571.79,-825.91 546.62,-734.78 506.54,-685.6 457.98,-626.02 386.08,-709.08 337.4,-649.6 310.88,-617.2 294.53,-555.4 336.4,-555.4"/>
<polygon fill="black" stroke="black" points="517.84,-835.73 507.49,-832.09 512.52,-836.18 508.21,-836.54 508.21,-836.54 508.21,-836.54 512.52,-836.18 508.26,-841.06 517.84,-835.73"/>
<text text-anchor="start" x="514.54" y="-846.6" font-family="Arial" font-size="10.00">FOREIGN KEY (sample1_id) REFERENCES sample1(id)</text>
</g>
</g>
</svg>
