<?xml version="1.0" encoding="UTF-8" standalone="no"?>
<!DOCTYPE svg PUBLIC "-//W3C//DTD SVG 1.1//EN"
 "http://www.w3.org/Graphics/SVG/1.1/DTD/svg11.dtd">
<!-- Generated by graphviz version 12.1.2 (20240928.0832)
 -->
<!-- Title: postgres Pages: 1 -->
<svg width="558pt" height="658pt"
 viewBox="0.00 0.00 557.74 657.60" xmlns="http://www.w3.org/2000/svg" xmlns:xlink="http://www.w3.org/1999/xlink">
<g id="graph0" class="graph" transform="scale(1 1) rotate(0) translate(4 653.6)">
<title>postgres</title>
<polygon fill="white" stroke="none" points="-4,4 -4,-653.6 553.74,-653.6 553.74,4 -4,4"/>
<!-- public.todo -->
<g id="node1" class="node">
<title>public.todo</title>
<polygon fill="#efefef" stroke="none" points="43.2,-258.8 43.2,-294.4 316.34,-294.4 316.34,-258.8 43.2,-258.8"/>
<polygon fill="none" stroke="black" points="43.2,-258.8 43.2,-294.4 316.34,-294.4 316.34,-258.8 43.2,-258.8"/>
<text text-anchor="start" x="76.78" y="-272.2" font-family="Arial Bold" font-size="18.00">public.todo</text>
<text text-anchor="start" x="158.27" y="-272.2" font-family="Arial" font-size="14.00">    </text>
<text text-anchor="start" x="189.39" y="-272.2" font-family="Arial" font-size="14.00" fill="#666666">[BASE TABLE]</text>
<polygon fill="none" stroke="black" points="43.2,-228 43.2,-258.8 316.34,-258.8 316.34,-228 43.2,-228"/>
<text text-anchor="start" x="50.2" y="-240.2" font-family="Arial" font-size="14.00">id </text>
<text text-anchor="start" x="64.99" y="-240.2" font-family="Arial" font-size="14.00" fill="#666666">[uuid]</text>
<polygon fill="none" stroke="black" points="43.2,-197.2 43.2,-228 316.34,-228 316.34,-197.2 43.2,-197.2"/>
<text text-anchor="start" x="50.2" y="-209.4" font-family="Arial" font-size="14.00">title </text>
<text text-anchor="start" x="75.88" y="-209.4" font-family="Arial" font-size="14.00" fill="#666666">[text]</text>
<polygon fill="none" stroke="black" points="43.2,-166.4 43.2,-197.2 316.34,-197.2 316.34,-166.4 43.2,-166.4"/>
<text text-anchor="start" x="50.2" y="-178.6" font-family="Arial" font-size="14.00">content </text>
<text text-anchor="start" x="100.01" y="-178.6" font-family="Arial" font-size="14.00" fill="#666666">[text]</text>
<polygon fill="none" stroke="black" points="43.2,-135.6 43.2,-166.4 316.34,-166.4 316.34,-135.6 43.2,-135.6"/>
<text text-anchor="start" x="50.2" y="-147.8" font-family="Arial" font-size="14.00">done </text>
<text text-anchor="start" x="85.23" y="-147.8" font-family="Arial" font-size="14.00" fill="#666666">[boolean]</text>
<polygon fill="none" stroke="black" points="43.2,-104.8 43.2,-135.6 316.34,-135.6 316.34,-104.8 43.2,-104.8"/>
<text text-anchor="start" x="50.2" y="-117" font-family="Arial" font-size="14.00">version </text>
<text text-anchor="start" x="99.22" y="-117" font-family="Arial" font-size="14.00" fill="#666666">[integer]</text>
<polygon fill="none" stroke="black" points="43.2,-74 43.2,-104.8 316.34,-104.8 316.34,-74 43.2,-74"/>
<text text-anchor="start" x="50.2" y="-86.2" font-family="Arial" font-size="14.00">created_at </text>
<text text-anchor="start" x="120.25" y="-86.2" font-family="Arial" font-size="14.00" fill="#666666">[timestamp without time zone]</text>
<polygon fill="none" stroke="black" points="43.2,-43.2 43.2,-74 316.34,-74 316.34,-43.2 43.2,-43.2"/>
<text text-anchor="start" x="50.2" y="-55.4" font-family="Arial" font-size="14.00">updated_at </text>
<text text-anchor="start" x="124.16" y="-55.4" font-family="Arial" font-size="14.00" fill="#666666">[timestamp without time zone]</text>
</g>
<!-- public.sample -->
<g id="node2" class="node">
<title>public.sample</title>
<polygon fill="#efefef" stroke="none" points="43.2,-570.8 43.2,-606.4 316.34,-606.4 316.34,-570.8 43.2,-570.8"/>
<polygon fill="none" stroke="black" points="43.2,-570.8 43.2,-606.4 316.34,-606.4 316.34,-570.8 43.2,-570.8"/>
<text text-anchor="start" x="67.29" y="-584.2" font-family="Arial Bold" font-size="18.00">public.sample</text>
<text text-anchor="start" x="167.77" y="-584.2" font-family="Arial" font-size="14.00">    </text>
<text text-anchor="start" x="198.88" y="-584.2" font-family="Arial" font-size="14.00" fill="#666666">[BASE TABLE]</text>
<polygon fill="none" stroke="black" points="43.2,-540 43.2,-570.8 316.34,-570.8 316.34,-540 43.2,-540"/>
<text text-anchor="start" x="50.2" y="-552.2" font-family="Arial" font-size="14.00">id </text>
<text text-anchor="start" x="64.99" y="-552.2" font-family="Arial" font-size="14.00" fill="#666666">[uuid]</text>
<polygon fill="none" stroke="black" points="43.2,-509.2 43.2,-540 316.34,-540 316.34,-509.2 43.2,-509.2"/>
<text text-anchor="start" x="50.2" y="-521.4" font-family="Arial" font-size="14.00">todo_id </text>
<text text-anchor="start" x="100.02" y="-521.4" font-family="Arial" font-size="14.00" fill="#666666">[uuid]</text>
<polygon fill="none" stroke="black" points="43.2,-478.4 43.2,-509.2 316.34,-509.2 316.34,-478.4 43.2,-478.4"/>
<text text-anchor="start" x="50.2" y="-490.6" font-family="Arial" font-size="14.00">version </text>
<text text-anchor="start" x="99.22" y="-490.6" font-family="Arial" font-size="14.00" fill="#666666">[integer]</text>
<polygon fill="none" stroke="black" points="43.2,-447.6 43.2,-478.4 316.34,-478.4 316.34,-447.6 43.2,-447.6"/>
<text text-anchor="start" x="50.2" y="-459.8" font-family="Arial" font-size="14.00">created_at </text>
<text text-anchor="start" x="120.25" y="-459.8" font-family="Arial" font-size="14.00" fill="#666666">[timestamp without time zone]</text>
<polygon fill="none" stroke="black" points="43.2,-416.8 43.2,-447.6 316.34,-447.6 316.34,-416.8 43.2,-416.8"/>
<text text-anchor="start" x="50.2" y="-429" font-family="Arial" font-size="14.00">updated_at </text>
<text text-anchor="start" x="124.16" y="-429" font-family="Arial" font-size="14.00" fill="#666666">[timestamp without time zone]</text>
</g>
<!-- public.sample&#45;&gt;public.todo -->
<g id="edge1" class="edge">
<title>public.sample:todo_id&#45;&gt;public.todo:id</title>
<path fill="none" stroke="black" d="M327.36,-522C379.63,-493.65 376.29,-243.4 317.34,-243.4"/>
<polygon fill="black" stroke="black" points="327.35,-522 316.53,-520.16 322.18,-523.34 317.99,-524.43 317.99,-524.43 317.99,-524.43 322.18,-523.34 318.8,-528.87 327.35,-522"/>
<text text-anchor="start" x="324.34" y="-534.6" font-family="Arial" font-size="10.00">FOREIGN KEY (todo_id) REFERENCES todo(id)</text>
</g>
</g>
</svg>
